<mxfile host="app.diagrams.net" agent="Mozilla/5.0 (Windows NT 10.0; Win64; x64) AppleWebKit/537.36 (KHTML, like Gecko) Chrome/129.0.0.0 Safari/537.36" version="24.7.17">
  <diagram name="Страница — 1" id="P_0eBgFqUFe3LXQ1mTjR">
    <mxGraphModel dx="1348" dy="2496" grid="1" gridSize="10" guides="1" tooltips="1" connect="1" arrows="1" fold="1" page="0" pageScale="1" pageWidth="827" pageHeight="1169" background="none" math="0" shadow="0">
      <root>
        <mxCell id="0" />
        <mxCell id="1" parent="0" />
        <mxCell id="tJprfwntqMG3Ix11lTIl-5" style="edgeStyle=none;curved=1;rounded=0;orthogonalLoop=1;jettySize=auto;html=1;entryX=0;entryY=0.5;entryDx=0;entryDy=0;fontSize=12;startSize=8;endSize=8;" edge="1" parent="1" source="tJprfwntqMG3Ix11lTIl-3" target="tJprfwntqMG3Ix11lTIl-4">
          <mxGeometry relative="1" as="geometry" />
        </mxCell>
        <mxCell id="tJprfwntqMG3Ix11lTIl-3" value="Actor" style="shape=umlActor;verticalLabelPosition=bottom;verticalAlign=top;html=1;outlineConnect=0;" vertex="1" parent="1">
          <mxGeometry x="-220" y="-450" width="30" height="60" as="geometry" />
        </mxCell>
        <mxCell id="tJprfwntqMG3Ix11lTIl-16" style="edgeStyle=none;curved=1;rounded=0;orthogonalLoop=1;jettySize=auto;html=1;exitX=1;exitY=0.5;exitDx=0;exitDy=0;entryX=0;entryY=0.5;entryDx=0;entryDy=0;fontSize=12;startSize=8;endSize=8;" edge="1" parent="1" source="tJprfwntqMG3Ix11lTIl-4" target="tJprfwntqMG3Ix11lTIl-15">
          <mxGeometry relative="1" as="geometry" />
        </mxCell>
        <mxCell id="tJprfwntqMG3Ix11lTIl-4" value="афиша" style="rounded=0;whiteSpace=wrap;html=1;" vertex="1" parent="1">
          <mxGeometry x="-20" y="-450" width="120" height="60" as="geometry" />
        </mxCell>
        <mxCell id="tJprfwntqMG3Ix11lTIl-6" value="1: смотреть афишу" style="text;html=1;align=center;verticalAlign=middle;resizable=0;points=[];autosize=1;strokeColor=none;fillColor=none;fontSize=16;" vertex="1" parent="1">
          <mxGeometry x="-190" y="-470" width="170" height="30" as="geometry" />
        </mxCell>
        <mxCell id="tJprfwntqMG3Ix11lTIl-9" value="" style="endArrow=none;html=1;rounded=0;fontSize=12;startSize=8;endSize=8;curved=1;" edge="1" parent="1">
          <mxGeometry width="50" height="50" relative="1" as="geometry">
            <mxPoint x="40" y="-450" as="sourcePoint" />
            <mxPoint x="40" y="-480" as="targetPoint" />
          </mxGeometry>
        </mxCell>
        <mxCell id="tJprfwntqMG3Ix11lTIl-10" value="" style="endArrow=none;html=1;rounded=0;fontSize=12;startSize=8;endSize=8;curved=1;" edge="1" parent="1">
          <mxGeometry width="50" height="50" relative="1" as="geometry">
            <mxPoint x="40" y="-480" as="sourcePoint" />
            <mxPoint x="120" y="-480" as="targetPoint" />
          </mxGeometry>
        </mxCell>
        <mxCell id="tJprfwntqMG3Ix11lTIl-11" value="" style="endArrow=none;html=1;rounded=0;fontSize=12;startSize=8;endSize=8;curved=1;" edge="1" parent="1">
          <mxGeometry width="50" height="50" relative="1" as="geometry">
            <mxPoint x="120" y="-440" as="sourcePoint" />
            <mxPoint x="120" y="-480" as="targetPoint" />
          </mxGeometry>
        </mxCell>
        <mxCell id="tJprfwntqMG3Ix11lTIl-12" value="" style="endArrow=classic;html=1;rounded=0;fontSize=12;startSize=8;endSize=8;curved=1;entryX=0.998;entryY=0.164;entryDx=0;entryDy=0;entryPerimeter=0;" edge="1" parent="1" target="tJprfwntqMG3Ix11lTIl-4">
          <mxGeometry width="50" height="50" relative="1" as="geometry">
            <mxPoint x="120" y="-440" as="sourcePoint" />
            <mxPoint x="170" y="-490" as="targetPoint" />
          </mxGeometry>
        </mxCell>
        <mxCell id="tJprfwntqMG3Ix11lTIl-13" value="" style="endArrow=classic;html=1;rounded=0;fontSize=12;startSize=8;endSize=8;curved=1;" edge="1" parent="1">
          <mxGeometry width="50" height="50" relative="1" as="geometry">
            <mxPoint x="50" y="-490" as="sourcePoint" />
            <mxPoint x="110" y="-490" as="targetPoint" />
          </mxGeometry>
        </mxCell>
        <mxCell id="tJprfwntqMG3Ix11lTIl-14" value="&lt;font style=&quot;font-size: 14px;&quot;&gt;1.1: * выбор фильма&lt;/font&gt;" style="text;html=1;align=center;verticalAlign=middle;resizable=0;points=[];autosize=1;strokeColor=none;fillColor=none;fontSize=16;" vertex="1" parent="1">
          <mxGeometry x="5" y="-519" width="160" height="30" as="geometry" />
        </mxCell>
        <mxCell id="tJprfwntqMG3Ix11lTIl-21" style="edgeStyle=none;curved=1;rounded=0;orthogonalLoop=1;jettySize=auto;html=1;exitX=1;exitY=0.5;exitDx=0;exitDy=0;fontSize=12;startSize=8;endSize=8;" edge="1" parent="1" source="tJprfwntqMG3Ix11lTIl-15" target="tJprfwntqMG3Ix11lTIl-19">
          <mxGeometry relative="1" as="geometry" />
        </mxCell>
        <mxCell id="tJprfwntqMG3Ix11lTIl-15" value="касса №x : кассовая система" style="rounded=0;whiteSpace=wrap;html=1;" vertex="1" parent="1">
          <mxGeometry x="280" y="-450" width="120" height="60" as="geometry" />
        </mxCell>
        <mxCell id="tJprfwntqMG3Ix11lTIl-17" value="2: покупка билета" style="text;html=1;align=center;verticalAlign=middle;resizable=0;points=[];autosize=1;strokeColor=none;fillColor=none;fontSize=16;" vertex="1" parent="1">
          <mxGeometry x="110" y="-470" width="160" height="30" as="geometry" />
        </mxCell>
        <mxCell id="tJprfwntqMG3Ix11lTIl-18" value="Так как явно не известно какой афишей пользуется пользователь,&amp;nbsp;&lt;div&gt;мы указываем ее абстрактно без дополнительной спецификации.&amp;nbsp;&lt;div&gt;Пускай за словом афиша может скрываться как вывеска на входе,&amp;nbsp;&lt;/div&gt;&lt;div&gt;или электронный ресурс, или просто постер рядом с кассой,&amp;nbsp;&lt;/div&gt;&lt;div&gt;для нас все эти сценарии не будут иметь различий&lt;/div&gt;&lt;/div&gt;" style="text;html=1;align=center;verticalAlign=middle;resizable=0;points=[];autosize=1;strokeColor=none;fillColor=none;fontSize=16;" vertex="1" parent="1">
          <mxGeometry x="-286" y="-629" width="520" height="110" as="geometry" />
        </mxCell>
        <mxCell id="tJprfwntqMG3Ix11lTIl-24" style="edgeStyle=none;curved=1;rounded=0;orthogonalLoop=1;jettySize=auto;html=1;exitX=0.5;exitY=1;exitDx=0;exitDy=0;entryX=0.5;entryY=0;entryDx=0;entryDy=0;fontSize=12;startSize=8;endSize=8;" edge="1" parent="1" source="tJprfwntqMG3Ix11lTIl-19" target="tJprfwntqMG3Ix11lTIl-23">
          <mxGeometry relative="1" as="geometry" />
        </mxCell>
        <mxCell id="tJprfwntqMG3Ix11lTIl-19" value="БД" style="rounded=0;whiteSpace=wrap;html=1;" vertex="1" parent="1">
          <mxGeometry x="730" y="-450" width="120" height="60" as="geometry" />
        </mxCell>
        <mxCell id="tJprfwntqMG3Ix11lTIl-20" value="БД - как физическая (продавец + билеты в наличии)&lt;div&gt;так и электронная&lt;/div&gt;" style="text;html=1;align=center;verticalAlign=middle;resizable=0;points=[];autosize=1;strokeColor=none;fillColor=none;fontSize=16;" vertex="1" parent="1">
          <mxGeometry x="130" y="-700" width="410" height="50" as="geometry" />
        </mxCell>
        <mxCell id="tJprfwntqMG3Ix11lTIl-22" value="2.1: запрос на получение списка билетов" style="text;html=1;align=center;verticalAlign=middle;resizable=0;points=[];autosize=1;strokeColor=none;fillColor=none;fontSize=16;" vertex="1" parent="1">
          <mxGeometry x="400" y="-470" width="330" height="30" as="geometry" />
        </mxCell>
        <mxCell id="tJprfwntqMG3Ix11lTIl-23" value="" style="rounded=0;whiteSpace=wrap;html=1;" vertex="1" parent="1">
          <mxGeometry x="1010" y="-260" width="120" height="60" as="geometry" />
        </mxCell>
        <mxCell id="tJprfwntqMG3Ix11lTIl-25" value="" style="endArrow=none;html=1;rounded=0;fontSize=12;startSize=8;endSize=8;curved=1;exitX=0.5;exitY=0;exitDx=0;exitDy=0;" edge="1" parent="1" source="tJprfwntqMG3Ix11lTIl-19">
          <mxGeometry width="50" height="50" relative="1" as="geometry">
            <mxPoint x="780" y="-449" as="sourcePoint" />
            <mxPoint x="790" y="-520" as="targetPoint" />
          </mxGeometry>
        </mxCell>
        <mxCell id="tJprfwntqMG3Ix11lTIl-26" value="" style="endArrow=none;html=1;rounded=0;fontSize=12;startSize=8;endSize=8;curved=1;" edge="1" parent="1">
          <mxGeometry width="50" height="50" relative="1" as="geometry">
            <mxPoint x="790" y="-520" as="sourcePoint" />
            <mxPoint x="920" y="-520" as="targetPoint" />
          </mxGeometry>
        </mxCell>
        <mxCell id="tJprfwntqMG3Ix11lTIl-27" value="" style="endArrow=none;html=1;rounded=0;fontSize=12;startSize=8;endSize=8;curved=1;" edge="1" parent="1">
          <mxGeometry width="50" height="50" relative="1" as="geometry">
            <mxPoint x="920" y="-440" as="sourcePoint" />
            <mxPoint x="920" y="-520" as="targetPoint" />
          </mxGeometry>
        </mxCell>
        <mxCell id="tJprfwntqMG3Ix11lTIl-28" value="" style="endArrow=classic;html=1;rounded=0;fontSize=12;startSize=8;endSize=8;curved=1;" edge="1" parent="1">
          <mxGeometry width="50" height="50" relative="1" as="geometry">
            <mxPoint x="920" y="-440" as="sourcePoint" />
            <mxPoint x="850" y="-440" as="targetPoint" />
          </mxGeometry>
        </mxCell>
        <mxCell id="tJprfwntqMG3Ix11lTIl-29" value="&lt;font style=&quot;font-size: 14px;&quot;&gt;2.1.1: проверка существования сеанса&lt;/font&gt;" style="text;html=1;align=center;verticalAlign=middle;resizable=0;points=[];autosize=1;strokeColor=none;fillColor=none;fontSize=16;" vertex="1" parent="1">
          <mxGeometry x="720" y="-560" width="280" height="30" as="geometry" />
        </mxCell>
        <mxCell id="tJprfwntqMG3Ix11lTIl-30" value="" style="endArrow=classic;html=1;rounded=0;fontSize=12;startSize=8;endSize=8;curved=1;" edge="1" parent="1">
          <mxGeometry width="50" height="50" relative="1" as="geometry">
            <mxPoint x="820" y="-530" as="sourcePoint" />
            <mxPoint x="890" y="-530" as="targetPoint" />
          </mxGeometry>
        </mxCell>
        <mxCell id="tJprfwntqMG3Ix11lTIl-31" value="" style="endArrow=classic;html=1;rounded=0;fontSize=12;startSize=8;endSize=8;curved=1;" edge="1" parent="1">
          <mxGeometry width="50" height="50" relative="1" as="geometry">
            <mxPoint x="520" y="-434.45" as="sourcePoint" />
            <mxPoint x="590" y="-434.45" as="targetPoint" />
            <Array as="points">
              <mxPoint x="520" y="-434.45" />
            </Array>
          </mxGeometry>
        </mxCell>
        <mxCell id="tJprfwntqMG3Ix11lTIl-32" value="" style="endArrow=classic;html=1;rounded=0;fontSize=12;startSize=8;endSize=8;curved=1;" edge="1" parent="1">
          <mxGeometry width="50" height="50" relative="1" as="geometry">
            <mxPoint x="155" y="-435.45" as="sourcePoint" />
            <mxPoint x="225" y="-435.45" as="targetPoint" />
          </mxGeometry>
        </mxCell>
        <mxCell id="tJprfwntqMG3Ix11lTIl-33" value="" style="endArrow=classic;html=1;rounded=0;fontSize=12;startSize=8;endSize=8;curved=1;" edge="1" parent="1">
          <mxGeometry width="50" height="50" relative="1" as="geometry">
            <mxPoint x="-140" y="-436" as="sourcePoint" />
            <mxPoint x="-70" y="-436" as="targetPoint" />
          </mxGeometry>
        </mxCell>
        <mxCell id="tJprfwntqMG3Ix11lTIl-34" value="2.2:передача списка доступных билетов" style="text;html=1;align=center;verticalAlign=middle;resizable=0;points=[];autosize=1;strokeColor=none;fillColor=none;fontSize=16;rotation=25;" vertex="1" parent="1">
          <mxGeometry x="840" y="-350" width="320" height="30" as="geometry" />
        </mxCell>
        <mxCell id="tJprfwntqMG3Ix11lTIl-37" style="edgeStyle=none;curved=1;rounded=0;orthogonalLoop=1;jettySize=auto;html=1;entryX=0.5;entryY=0;entryDx=0;entryDy=0;fontSize=12;startSize=8;endSize=8;" edge="1" parent="1">
          <mxGeometry relative="1" as="geometry">
            <mxPoint x="940" y="-340" as="sourcePoint" />
            <mxPoint x="1000" y="-310" as="targetPoint" />
          </mxGeometry>
        </mxCell>
      </root>
    </mxGraphModel>
  </diagram>
</mxfile>
